<svg width="24" height="18" viewBox="0 0 24 18" fill="none" xmlns="http://www.w3.org/2000/svg">
<path d="M18.0303 6.53033C18.3232 6.23744 18.3232 5.76256 18.0303 5.46967C17.7374 5.17678 17.2626 5.17678 16.9697 5.46967L13.4393 9L16.9697 12.5303C17.2626 12.8232 17.7374 12.8232 18.0303 12.5303C18.3232 12.2374 18.3232 11.7626 18.0303 11.4697L15.5607 9L18.0303 6.53033Z" fill="#ADB5BD"/>
<path fill-rule="evenodd" clip-rule="evenodd" d="M4.41379 -3.8147e-05C1.97612 -3.8147e-05 0 1.97609 0 4.41376V13.5862C0 16.0238 1.97612 18 4.41379 18H19.5862C22.0239 18 24 16.0238 24 13.5862V4.41375C24 1.97608 22.0239 -3.8147e-05 19.5862 -3.8147e-05H4.41379ZM19.5862 1.49996H9.5V16.5H19.5862C21.1954 16.5 22.5 15.1954 22.5 13.5862V4.41375C22.5 2.80451 21.1954 1.49996 19.5862 1.49996ZM4.41379 1.49996H8V16.5H4.41379C2.80455 16.5 1.5 15.1954 1.5 13.5862V4.41376C1.5 2.80451 2.80455 1.49996 4.41379 1.49996Z" fill="#ADB5BD"/>
</svg>
