<svg width="172" height="54" viewBox="0 0 4820 1322" fill="none" xmlns="http://www.w3.org/2000/svg">
<path d="M862.003 75.1582H584.631C576.822 75.1582 569.68 79.5588 566.169 86.5334L296.423 622.381C289.504 636.127 299.496 652.344 314.885 652.344H463.743C478.571 652.344 488.575 667.495 482.751 681.13L295.359 1119.89C286.04 1141.71 314.828 1159.47 330.148 1141.36L901.061 466.227C912.422 452.793 902.873 432.213 885.279 432.213H713.409C697.175 432.213 687.278 414.355 695.883 400.589L879.529 106.782C888.134 93.0157 878.237 75.1582 862.003 75.1582Z" fill="#5D15ED"/>
<path d="M670.073 370.206L352.844 519.938C348.67 521.908 345.275 525.219 343.201 529.343L296.406 622.388C289.493 636.134 299.485 652.344 314.871 652.344H463.743C478.571 652.344 488.575 667.495 482.751 681.13L295.359 1119.89C286.04 1141.71 314.828 1159.47 330.148 1141.36L901.061 466.227C912.422 452.793 902.873 432.213 885.279 432.213H713.486C697.235 432.213 687.488 414.09 696.125 400.325C707.1 382.834 688.746 361.392 670.073 370.206Z" fill="#410FA6"/>
<path d="M1425.2 270V12.4H1540C1559.73 12.4 1576 16.1333 1588.8 23.6C1601.6 31.0667 1611.07 41.3333 1617.2 54.4C1623.33 67.2 1626.4 81.8667 1626.4 98.4C1626.4 124 1618.4 144.533 1602.4 160C1586.67 175.467 1565.33 183.2 1538.4 183.2H1468.8V270H1425.2ZM1468.8 148.8H1530.4C1547.73 148.8 1560.8 144.267 1569.6 135.2C1578.4 126.133 1582.8 113.867 1582.8 98.4C1582.8 81.8667 1578.53 69.0667 1570 60C1561.73 50.9333 1549.2 46.4 1532.4 46.4H1468.8V148.8ZM1747.94 274C1713.8 274 1688.74 265.467 1672.74 248.4C1657 231.333 1649.14 206.933 1649.14 175.2C1649.14 143.467 1657.14 119.067 1673.14 102C1689.14 84.9333 1714.07 76.4 1747.94 76.4C1782.07 76.4 1807.14 84.9333 1823.14 102C1839.14 119.067 1847.14 143.467 1847.14 175.2C1847.14 206.933 1839.14 231.333 1823.14 248.4C1807.4 265.467 1782.34 274 1747.94 274ZM1747.94 237.2C1767.94 237.2 1782.07 232.4 1790.34 222.8C1798.87 212.933 1803.14 197.067 1803.14 175.2C1803.14 153.333 1798.87 137.6 1790.34 128C1782.07 118.4 1767.94 113.6 1747.94 113.6C1728.2 113.6 1714.07 118.4 1705.54 128C1697.27 137.6 1693.14 153.333 1693.14 175.2C1693.14 197.067 1697.27 212.933 1705.54 222.8C1714.07 232.4 1728.2 237.2 1747.94 237.2ZM1885.56 270V80.4H1925.56L1927.96 102.4C1937.03 96.5333 1947.83 91.2 1960.36 86.4C1972.89 81.6 1985.29 78.2667 1997.56 76.4V109.6C1990.09 110.933 1981.96 112.933 1973.16 115.6C1964.63 118 1956.49 120.8 1948.76 124C1941.03 126.933 1934.49 130 1929.16 133.2V270H1885.56ZM2097.71 274C2077.44 274 2062.24 268.667 2052.11 258C2042.24 247.067 2037.31 232.267 2037.31 213.6V114.4H2009.31V80.4H2037.31V36.8L2080.51 23.6V80.4H2130.91L2128.11 114.4H2080.51V211.2C2080.51 222.133 2083.04 229.867 2088.11 234.4C2093.18 238.667 2101.44 240.8 2112.91 240.8C2120.11 240.8 2127.71 239.467 2135.71 236.8V267.6C2125.31 271.867 2112.64 274 2097.71 274ZM2224.26 274C2212.26 274 2201.06 271.867 2190.66 267.6C2180.53 263.333 2172.39 256.933 2166.26 248.4C2160.13 239.6 2157.06 228.8 2157.06 216C2157.06 197.867 2163.19 183.333 2175.46 172.4C2187.99 161.2 2207.19 155.6 2233.06 155.6H2293.86V147.2C2293.86 138.133 2292.39 130.933 2289.46 125.6C2286.79 120.267 2281.73 116.4 2274.26 114C2267.06 111.6 2256.39 110.4 2242.26 110.4C2219.86 110.4 2198.93 113.733 2179.46 120.4V88C2187.99 84.5333 2198.39 81.7333 2210.66 79.6C2222.93 77.4667 2236.13 76.4 2250.26 76.4C2277.99 76.4 2299.06 82 2313.46 93.2C2328.13 104.4 2335.46 122.667 2335.46 148V270H2298.26L2295.46 250.8C2287.73 258.267 2278.13 264 2266.66 268C2255.46 272 2241.33 274 2224.26 274ZM2235.86 242.8C2248.93 242.8 2260.26 240.667 2269.86 236.4C2279.73 231.867 2287.73 225.867 2293.86 218.4V185.2H2233.86C2221.06 185.2 2211.73 187.733 2205.86 192.8C2200.26 197.6 2197.46 205.067 2197.46 215.2C2197.46 225.067 2200.79 232.133 2207.46 236.4C2214.13 240.667 2223.59 242.8 2235.86 242.8ZM2427.01 274C2411.54 274 2399.81 270.267 2391.81 262.8C2383.81 255.067 2379.81 242.4 2379.81 224.8V0.39999H2423.41V220.8C2423.41 228.267 2424.74 233.333 2427.41 236C2430.08 238.667 2434.08 240 2439.41 240C2445.81 240 2451.94 239.2 2457.81 237.6V269.2C2452.74 271.067 2447.81 272.267 2443.01 272.8C2438.48 273.6 2433.14 274 2427.01 274Z" fill="#410FA6"/>
<path d="M1440 1114V470H1737C1804.33 470 1862 481 1910 503C1958 524.333 1995 559 2021 607C2047 654.333 2060 717.333 2060 796C2060 907.333 2031.67 988.333 1975 1039C1918.33 1089 1839 1114 1737 1114H1440ZM1655 950H1711C1738.33 950 1761.67 946 1781 938C1800.33 930 1815 915 1825 893C1835.67 871 1841 838.667 1841 796C1841 753.333 1836.33 721 1827 699C1817.67 677 1803.33 662 1784 654C1764.67 645.333 1740.33 641 1711 641H1655V950ZM2109.3 589V438H2340.3V589H2109.3ZM2125.3 1114V796H2058.3L2076.3 640H2340.3V1114H2125.3ZM2615 1290C2591.67 1290 2565.67 1289 2537 1287C2509 1285.67 2482.33 1283 2457 1279C2431.67 1275.67 2411 1271.33 2395 1266V1137C2413 1143 2434 1147.67 2458 1151C2482.67 1155 2507.67 1158 2533 1160C2558.33 1162 2581.33 1163 2602 1163C2632.67 1163 2657.67 1161.33 2677 1158C2697 1155.33 2707 1150 2707 1142C2707 1135.33 2703.33 1131 2696 1129C2688.67 1127.67 2677.33 1127 2662 1127H2543C2491 1127 2451.33 1119.67 2424 1105C2396.67 1089.67 2383 1066 2383 1034C2383 988.667 2408.33 957.667 2459 941C2431.67 927 2411.67 909.667 2399 889C2387 868.333 2381 841.667 2381 809C2381 747.667 2402.67 702.667 2446 674C2490 644.667 2552 630 2632 630C2649.33 630 2669 631.333 2691 634C2713 636 2728.67 638 2738 640H2928L2924 769H2866C2874 781.667 2878 796 2878 812C2878 860.667 2864.33 899 2837 927C2810.33 955 2766.33 969 2705 969C2697 969 2688 968.667 2678 968C2668 967.333 2659 966.667 2651 966C2639 966.667 2628.33 968.667 2619 972C2610.33 975.333 2606 981 2606 989C2606 999 2616 1004 2636 1004H2732C2781.33 1004 2820.33 1015 2849 1037C2878.33 1059 2893 1092.67 2893 1138C2893 1184.67 2870.67 1221.67 2826 1249C2782 1276.33 2711.67 1290 2615 1290ZM2634 852C2658 852 2674.33 848 2683 840C2692.33 832 2697 818.667 2697 800C2697 780.667 2692.33 767 2683 759C2673.67 750.333 2657.33 746 2634 746C2611.33 746 2595 750.333 2585 759C2575 767 2570 780.667 2570 800C2570 818 2574.67 831.333 2584 840C2594 848 2610.67 852 2634 852ZM2969.69 589V438H3200.69V589H2969.69ZM2985.69 1114V796H2918.69L2936.69 640H3200.69V1114H2985.69ZM3260.39 1322V640H3446.39L3456.39 675C3475.06 661 3495.39 650 3517.39 642C3539.39 634 3565.39 630 3595.39 630C3666.72 630 3721.39 649 3759.39 687C3798.06 725 3817.39 786.667 3817.39 872C3817.39 956.667 3796.72 1020 3755.39 1062C3714.72 1103.33 3658.39 1124 3586.39 1124C3566.39 1124 3546.39 1122 3526.39 1118C3506.39 1114 3489.39 1108.67 3475.39 1102V1322H3260.39ZM3532.39 969C3553.72 969 3570.06 962 3581.39 948C3592.72 933.333 3598.39 908.667 3598.39 874C3598.39 840 3592.72 816.667 3581.39 804C3570.72 791.333 3554.72 785 3533.39 785C3511.39 785 3492.06 792.333 3475.39 807V950C3484.06 956.667 3492.39 961.667 3500.39 965C3509.06 967.667 3519.72 969 3532.39 969ZM3857.58 1114V640H4066.58L4071.58 673C4089.58 662.333 4113.24 652.667 4142.58 644C4171.91 635.333 4201.91 630.667 4232.58 630V789C4215.91 789.667 4197.24 791.333 4176.58 794C4156.58 796.667 4137.24 800 4118.58 804C4100.58 807.333 4085.24 811.667 4072.58 817V1114H3857.58ZM4509.85 1124C4412.52 1124 4340.18 1103.33 4292.85 1062C4246.18 1020 4222.85 958.333 4222.85 877C4222.85 795.667 4246.52 734.333 4293.85 693C4341.18 651 4413.18 630 4509.85 630C4607.18 630 4679.52 651 4726.85 693C4774.85 734.333 4798.85 795.667 4798.85 877C4798.85 958.333 4775.18 1020 4727.85 1062C4680.52 1103.33 4607.85 1124 4509.85 1124ZM4509.85 969C4533.85 969 4551.52 962 4562.85 948C4574.18 934 4579.85 910.333 4579.85 877C4579.85 843.667 4574.18 820 4562.85 806C4551.52 792 4533.85 785 4509.85 785C4486.52 785 4469.18 792 4457.85 806C4447.18 820 4441.85 843.667 4441.85 877C4441.85 910.333 4447.18 934 4457.85 948C4469.18 962 4486.52 969 4509.85 969Z" fill="#410FA6"/>
</svg>
